# xmcd
#
# Track frame offsets:
#	150
#	17215
#	32421
#	62818
#	75638
#	86875
#	101856
#	123194
#	124825
#	134128
#	144559
#	158985
#	171144
#	184933
#	196595
#	208182
#	213406
#
# Disc length: 3749 seconds
#
# Revision: 1
# Processed by: cddbd v1.5.2PL0 Copyright (c) Steve Scherf et al.
# Submitted via: audiograbber 1.83.01
#
DISCID=fa0ea311
DTITLE=Canned Heat - Living The Blues 
DYEAR=1970
DGENRE=Blues
TTITLE0=Pony Blues
TTITLE1=My Mistake
TTITLE2=Sandy's Blues
TTITLE3=Going Up The Country
TTITLE4=Waking By Myself
TTITLE5=Boogie Music
TTITLE6=One Kind Favour
TTITLE7=Parthenogenesis Nebulosity
TTITLE8=Rollin' and Tumblin'
TTITLE9=Five Owls
TTITLE10=Bear Wires
TTITLE11=Snooky Flowers
TTITLE12=Sunflower Power
TTITLE13=Raga Kafi
TTITLE14=Icebag
TTITLE15=Childhood
TTITLE16=Refried Boogie (part 1)
EXTD=
EXTT0=
EXTT1=
EXTT2=
EXTT3=
EXTT4=
EXTT5=
EXTT6=
EXTT7=
EXTT8=
EXTT9=
EXTT10=
EXTT11=
EXTT12=
EXTT13=
EXTT14=
EXTT15=
EXTT16=
PLAYORDER=
